<svg width="1024" height="1024" viewBox="0 0 1024 1024" fill="none" xmlns="http://www.w3.org/2000/svg">
<path d="M0 0H1024V1024H0V0Z" fill="#F5F5F5"/>
<path d="M0 0H1024V1024H0V0Z" fill="#F5F5F5"/>
<g filter="url(#filter0_d_68_15)">
<path d="M552.47 315.339C551.28 314.396 549.889 313.741 548.404 313.425C546.919 313.109 545.382 313.14 543.912 313.517L384.231 353.439C382.074 353.979 380.159 355.223 378.789 356.974C377.42 358.726 376.674 360.885 376.671 363.108V500.466C368.345 494.902 358.398 492.281 348.411 493.019C338.425 493.757 328.971 497.812 321.553 504.539C314.135 511.266 309.178 520.28 307.469 530.147C305.761 540.015 307.399 550.171 312.124 559C316.848 567.83 324.388 574.827 333.546 578.88C342.703 582.933 352.952 583.809 362.664 581.369C372.376 578.929 380.994 573.313 387.148 565.413C393.303 557.513 396.64 547.783 396.631 537.768V420.808L536.352 385.876V460.544C528.025 454.98 518.079 452.359 508.092 453.097C498.105 453.835 488.652 457.89 481.234 464.617C473.816 471.344 468.858 480.357 467.15 490.225C465.441 500.093 467.08 510.248 471.804 519.078C476.529 527.908 484.069 534.905 493.226 538.958C502.383 543.011 512.632 543.887 522.344 541.447C532.056 539.007 540.674 533.39 546.829 525.491C552.983 517.591 556.321 507.86 556.312 497.846V323.186C556.308 321.672 555.961 320.179 555.295 318.819C554.629 317.46 553.663 316.27 552.47 315.339Z" fill="#FB4D65" fill-opacity="0.97" shape-rendering="crispEdges"/>
</g>
<g filter="url(#filter1_d_68_15)">
<path fill-rule="evenodd" clip-rule="evenodd" d="M226.424 455.158C226.424 394.484 250.525 336.295 293.426 293.392C336.327 250.489 394.513 226.386 455.183 226.386C515.854 226.386 574.04 250.489 616.941 293.392C659.842 336.295 683.943 394.484 683.943 455.158C683.943 515.833 659.842 574.022 616.941 616.925C574.04 659.828 515.854 683.931 455.183 683.931C394.513 683.931 336.327 659.828 293.426 616.925C250.525 574.022 226.424 515.833 226.424 455.158ZM455.183 112C401.179 111.993 347.936 124.734 299.784 149.185C251.631 173.637 209.93 209.109 178.071 252.718C146.212 296.326 125.095 346.838 116.438 400.147C107.781 453.456 111.827 508.055 128.249 559.505C144.67 610.955 173.003 657.802 210.942 696.237C248.882 734.671 295.357 763.608 346.587 780.693C397.818 797.778 452.358 802.529 505.771 794.561C559.184 786.592 609.962 766.127 653.976 734.832L815.08 895.945C825.866 906.363 840.312 912.128 855.307 911.998C870.302 911.868 884.646 905.853 895.25 895.249C905.853 884.644 911.868 870.3 911.998 855.304C912.128 840.308 906.364 825.861 895.946 815.074L734.899 654.019C771.403 602.68 793.071 542.283 797.529 479.447C801.988 416.61 789.064 353.759 760.176 297.78C731.287 241.801 687.548 194.855 633.75 162.085C579.953 129.316 518.174 111.988 455.183 112Z" fill="#FB4D65" fill-opacity="0.97" shape-rendering="crispEdges"/>
</g>
<defs>
<filter id="filter0_d_68_15" x="302.811" y="309.209" width="265.501" height="285.514" filterUnits="userSpaceOnUse" color-interpolation-filters="sRGB">
<feFlood flood-opacity="0" result="BackgroundImageFix"/>
<feColorMatrix in="SourceAlpha" type="matrix" values="0 0 0 0 0 0 0 0 0 0 0 0 0 0 0 0 0 0 127 0" result="hardAlpha"/>
<feOffset dx="4" dy="4"/>
<feGaussianBlur stdDeviation="4"/>
<feComposite in2="hardAlpha" operator="out"/>
<feColorMatrix type="matrix" values="0 0 0 0 0 0 0 0 0 0 0 0 0 0 0 0 0 0 0.25 0"/>
<feBlend mode="normal" in2="BackgroundImageFix" result="effect1_dropShadow_68_15"/>
<feBlend mode="normal" in="SourceGraphic" in2="effect1_dropShadow_68_15" result="shape"/>
</filter>
<filter id="filter1_d_68_15" x="112" y="108" width="816" height="816" filterUnits="userSpaceOnUse" color-interpolation-filters="sRGB">
<feFlood flood-opacity="0" result="BackgroundImageFix"/>
<feColorMatrix in="SourceAlpha" type="matrix" values="0 0 0 0 0 0 0 0 0 0 0 0 0 0 0 0 0 0 127 0" result="hardAlpha"/>
<feOffset dx="8" dy="4"/>
<feGaussianBlur stdDeviation="4"/>
<feComposite in2="hardAlpha" operator="out"/>
<feColorMatrix type="matrix" values="0 0 0 0 0 0 0 0 0 0 0 0 0 0 0 0 0 0 0.25 0"/>
<feBlend mode="normal" in2="BackgroundImageFix" result="effect1_dropShadow_68_15"/>
<feBlend mode="normal" in="SourceGraphic" in2="effect1_dropShadow_68_15" result="shape"/>
</filter>
</defs>
</svg>
